Coordinates
version=1
nRows=47
nColumns=21
inDegrees=no
endheader
time	ra_wr_s_p	ra_wr_e_f	ra_cmc1_ad_ab	ra_cmc1_f_e	ra_mcp1_f_e	ra_ip1_f_e	ra_mcp2_e_f	ra_pip2_e_f	ra_dip2_e_f	ra_mcp3_e_f	ra_pip3_e_f	ra_dip3_e_f	ra_mcp4_e_f	ra_pip4_e_f	ra_dip4_e_f	ra_mcp5_e_f	ra_pip5_e_f	ra_dip5_e_f	ra_el_e_f	ra_wr_ad_ab
0.250000	0.000000	0.087300	0.260984	0.260984	-0.234877	-0.469754	0.469754	0.626338	0.469754	0.469754	0.626338	0.469754	0.469754	0.626338	0.469754	0.469754	0.626338	0.469754	1.570796	0.085000
0.251000	0.000000	0.087300	0.259333	0.259333	-0.233390	-0.466781	0.466781	0.622375	0.466781	0.466781	0.622375	0.466781	0.466781	0.622375	0.466781	0.466781	0.622375	0.466781	1.570796	0.085000
0.252000	0.000000	0.087300	0.257682	0.257682	-0.231905	-0.463809	0.463809	0.618412	0.463809	0.463809	0.618412	0.463809	0.463809	0.618412	0.463809	0.463809	0.618412	0.463809	1.570796	0.085000
0.253000	0.000000	0.087300	0.256031	0.256031	-0.230419	-0.460839	0.460839	0.614451	0.460839	0.460839	0.614451	0.460839	0.460839	0.614451	0.460839	0.460839	0.614451	0.460839	1.570796	0.085000
0.254000	0.000000	0.087300	0.254382	0.254382	-0.228935	-0.457870	0.457870	0.610493	0.457870	0.457870	0.610493	0.457870	0.457870	0.610493	0.457870	0.457870	0.610493	0.457870	1.570796	0.085000
0.255000	0.000000	0.087300	0.252734	0.252734	-0.227452	-0.454903	0.454903	0.606538	0.454903	0.454903	0.606538	0.454903	0.454903	0.606538	0.454903	0.454903	0.606538	0.454903	1.570796	0.085000
0.256000	0.000000	0.087300	0.251087	0.251087	-0.225970	-0.451940	0.451940	0.602586	0.451940	0.451940	0.602586	0.451940	0.451940	0.602586	0.451940	0.451940	0.602586	0.451940	1.570796	0.085000
0.257000	0.000000	0.087300	0.249443	0.249443	-0.224490	-0.448979	0.448979	0.598639	0.448979	0.448979	0.598639	0.448979	0.448979	0.598639	0.448979	0.448979	0.598639	0.448979	1.570796	0.085000
0.258000	0.000000	0.087300	0.247800	0.247800	-0.223011	-0.446023	0.446023	0.594697	0.446023	0.446023	0.594697	0.446023	0.446023	0.594697	0.446023	0.446023	0.594697	0.446023	1.570796	0.085000
0.259000	0.000000	0.087300	0.246160	0.246160	-0.221535	-0.443071	0.443071	0.590761	0.443071	0.443071	0.590761	0.443071	0.443071	0.590761	0.443071	0.443071	0.590761	0.443071	1.570796	0.085000
0.260000	0.000000	0.087300	0.244522	0.244522	-0.220062	-0.440123	0.440123	0.586831	0.440123	0.440123	0.586831	0.440123	0.440123	0.586831	0.440123	0.440123	0.586831	0.440123	1.570796	0.085000
0.261000	0.000000	0.087300	0.242888	0.242888	-0.218591	-0.437181	0.437181	0.582909	0.437181	0.437181	0.582909	0.437181	0.437181	0.582909	0.437181	0.437181	0.582909	0.437181	1.570796	0.085000
0.262000	0.000000	0.087300	0.241257	0.241257	-0.217123	-0.434245	0.434245	0.578994	0.434245	0.434245	0.578994	0.434245	0.434245	0.578994	0.434245	0.434245	0.578994	0.434245	1.570796	0.085000
0.263000	0.000000	0.087300	0.239629	0.239629	-0.215658	-0.431315	0.431315	0.575087	0.431315	0.431315	0.575087	0.431315	0.431315	0.575087	0.431315	0.431315	0.575087	0.431315	1.570796	0.085000
0.264000	0.000000	0.087300	0.238005	0.238005	-0.214196	-0.428392	0.428392	0.571190	0.428392	0.428392	0.571190	0.428392	0.428392	0.571190	0.428392	0.428392	0.571190	0.428392	1.570796	0.085000
0.265000	0.000000	0.087300	0.236385	0.236385	-0.212738	-0.425476	0.425476	0.567302	0.425476	0.425476	0.567302	0.425476	0.425476	0.567302	0.425476	0.425476	0.567302	0.425476	1.570796	0.085000
0.266000	0.000000	0.087300	0.234769	0.234769	-0.211284	-0.422568	0.422568	0.563424	0.422568	0.422568	0.563424	0.422568	0.422568	0.563424	0.422568	0.422568	0.563424	0.422568	1.570796	0.085000
0.267000	0.000000	0.087300	0.233158	0.233158	-0.209834	-0.419668	0.419668	0.559557	0.419668	0.419668	0.559557	0.419668	0.419668	0.559557	0.419668	0.419668	0.559557	0.419668	1.570796	0.085000
0.268000	0.000000	0.087300	0.231551	0.231551	-0.208388	-0.416777	0.416777	0.555702	0.416777	0.416777	0.555702	0.416777	0.416777	0.555702	0.416777	0.416777	0.555702	0.416777	1.570796	0.085000
0.269000	0.000000	0.087300	0.229950	0.229950	-0.206947	-0.413894	0.413894	0.551859	0.413894	0.413894	0.551859	0.413894	0.413894	0.551859	0.413894	0.413894	0.551859	0.413894	1.570796	0.085000
0.270000	0.000000	0.087300	0.228354	0.228354	-0.205511	-0.411022	0.411022	0.548029	0.411022	0.411022	0.548029	0.411022	0.411022	0.548029	0.411022	0.411022	0.548029	0.411022	1.570796	0.085000
0.271000	0.000000	0.087300	0.226764	0.226764	-0.204079	-0.408159	0.408159	0.544212	0.408159	0.408159	0.544212	0.408159	0.408159	0.544212	0.408159	0.408159	0.544212	0.408159	1.570796	0.085000
0.272000	0.000000	0.087300	0.225179	0.225179	-0.202653	-0.405307	0.405307	0.540409	0.405307	0.405307	0.540409	0.405307	0.405307	0.540409	0.405307	0.405307	0.540409	0.405307	1.570796	0.085000
0.273000	0.000000	0.087300	0.223600	0.223600	-0.201233	-0.402465	0.402465	0.536620	0.402465	0.402465	0.536620	0.402465	0.402465	0.536620	0.402465	0.402465	0.536620	0.402465	1.570796	0.085000
0.274000	0.000000	0.087300	0.222028	0.222028	-0.199817	-0.399635	0.399635	0.532846	0.399635	0.399635	0.532846	0.399635	0.399635	0.532846	0.399635	0.399635	0.532846	0.399635	1.570796	0.085000
0.275000	0.000000	0.087300	0.220462	0.220462	-0.198408	-0.396816	0.396816	0.529088	0.396816	0.396816	0.529088	0.396816	0.396816	0.529088	0.396816	0.396816	0.529088	0.396816	1.570796	0.085000
0.276000	0.000000	0.087300	0.218903	0.218903	-0.197005	-0.394009	0.394009	0.525346	0.394009	0.394009	0.525346	0.394009	0.394009	0.525346	0.394009	0.394009	0.525346	0.394009	1.570796	0.085000
0.277000	0.000000	0.087300	0.217350	0.217350	-0.195608	-0.391215	0.391215	0.521620	0.391215	0.391215	0.521620	0.391215	0.391215	0.521620	0.391215	0.391215	0.521620	0.391215	1.570796	0.085000
0.278000	0.000000	0.087300	0.215805	0.215805	-0.194217	-0.388434	0.388434	0.517912	0.388434	0.388434	0.517912	0.388434	0.388434	0.517912	0.388434	0.388434	0.517912	0.388434	1.570796	0.085000
0.279000	0.000000	0.087300	0.214267	0.214267	-0.192833	-0.385666	0.385666	0.514221	0.385666	0.385666	0.514221	0.385666	0.385666	0.514221	0.385666	0.385666	0.514221	0.385666	1.570796	0.085000
0.280000	0.000000	0.087300	0.212737	0.212737	-0.191456	-0.382911	0.382911	0.510548	0.382911	0.382911	0.510548	0.382911	0.382911	0.510548	0.382911	0.382911	0.510548	0.382911	1.570796	0.085000
0.281000	0.000000	0.087300	0.211214	0.211214	-0.190085	-0.380171	0.380171	0.506894	0.380171	0.380171	0.506894	0.380171	0.380171	0.506894	0.380171	0.380171	0.506894	0.380171	1.570796	0.085000
0.282000	0.000000	0.087300	0.209699	0.209699	-0.188722	-0.377444	0.377444	0.503259	0.377444	0.377444	0.503259	0.377444	0.377444	0.503259	0.377444	0.377444	0.503259	0.377444	1.570796	0.085000
0.283000	0.000000	0.087300	0.208193	0.208193	-0.187366	-0.374732	0.374732	0.499643	0.374732	0.374732	0.499643	0.374732	0.374732	0.499643	0.374732	0.374732	0.499643	0.374732	1.570796	0.085000
0.284000	0.000000	0.087300	0.206694	0.206694	-0.186018	-0.372035	0.372035	0.496047	0.372035	0.372035	0.496047	0.372035	0.372035	0.496047	0.372035	0.372035	0.496047	0.372035	1.570796	0.085000
0.285000	0.000000	0.087300	0.205204	0.205204	-0.184677	-0.369354	0.369354	0.492472	0.369354	0.369354	0.492472	0.369354	0.369354	0.492472	0.369354	0.369354	0.492472	0.369354	1.570796	0.085000
0.286000	0.000000	0.087300	0.203723	0.203723	-0.183344	-0.366688	0.366688	0.488917	0.366688	0.366688	0.488917	0.366688	0.366688	0.488917	0.366688	0.366688	0.488917	0.366688	1.570796	0.085000
0.287000	0.000000	0.087300	0.202251	0.202251	-0.182019	-0.364037	0.364037	0.485383	0.364037	0.364037	0.485383	0.364037	0.364037	0.485383	0.364037	0.364037	0.485383	0.364037	1.570796	0.085000
0.288000	0.000000	0.087300	0.200787	0.200787	-0.180702	-0.361403	0.361403	0.481871	0.361403	0.361403	0.481871	0.361403	0.361403	0.481871	0.361403	0.361403	0.481871	0.361403	1.570796	0.085000
0.289000	0.000000	0.087300	0.199333	0.199333	-0.179393	-0.358785	0.358785	0.478380	0.358785	0.358785	0.478380	0.358785	0.358785	0.478380	0.358785	0.358785	0.478380	0.358785	1.570796	0.085000
0.290000	0.000000	0.087300	0.197888	0.197888	-0.178092	-0.356184	0.356184	0.474912	0.356184	0.356184	0.474912	0.356184	0.356184	0.474912	0.356184	0.356184	0.474912	0.356184	1.570796	0.085000
0.291000	0.000000	0.087300	0.196452	0.196452	-0.176800	-0.353600	0.353600	0.471467	0.353600	0.353600	0.471467	0.353600	0.353600	0.471467	0.353600	0.353600	0.471467	0.353600	1.570796	0.085000
0.292000	0.000000	0.087300	0.195026	0.195026	-0.175517	-0.351033	0.351033	0.468044	0.351033	0.351033	0.468044	0.351033	0.351033	0.468044	0.351033	0.351033	0.468044	0.351033	1.570796	0.085000
0.293000	0.000000	0.087300	0.193609	0.193609	-0.174242	-0.348484	0.348484	0.464645	0.348484	0.348484	0.464645	0.348484	0.348484	0.464645	0.348484	0.348484	0.464645	0.348484	1.570796	0.085000
0.294000	0.000000	0.087300	0.192203	0.192203	-0.172976	-0.345952	0.345952	0.461269	0.345952	0.345952	0.461269	0.345952	0.345952	0.461269	0.345952	0.345952	0.461269	0.345952	1.570796	0.085000
0.295000	0.000000	0.087300	0.190806	0.190806	-0.171719	-0.343438	0.343438	0.457917	0.343438	0.343438	0.457917	0.343438	0.343438	0.457917	0.343438	0.343438	0.457917	0.343438	1.570796	0.085000
0.296000	0.000000	0.087300	0.189419	0.189419	-0.170471	-0.340942	0.340942	0.454589	0.340942	0.340942	0.454589	0.340942	0.340942	0.454589	0.340942	0.340942	0.454589	0.340942	1.570796	0.085000
